<?xml version="1.0" standalone="no"?>
<!DOCTYPE svg PUBLIC "-//W3C//DTD SVG 20010904//EN"
 "http://www.w3.org/TR/2001/REC-SVG-20010904/DTD/svg10.dtd">
<svg version="1.0" xmlns="http://www.w3.org/2000/svg"
 width="500.000000pt" height="500.000000pt" viewBox="0 0 500.000000 500.000000"
 preserveAspectRatio="xMidYMid meet">
<metadata>
Created by potrace 1.11, written by Peter Selinger 2001-2013
</metadata>
<g transform="translate(0.000000,500.000000) scale(0.100000,-0.100000)"
fill="#000000" stroke="none">
<path d="M1523 3155 c-73 -20 -127 -49 -178 -96 -23 -21 -45 -39 -49 -39 -3 0
-6 29 -6 65 l0 65 -175 0 -175 0 0 -660 0 -660 175 0 175 0 0 377 c0 426 6
483 54 546 80 105 242 126 330 43 62 -58 66 -88 66 -553 l0 -413 181 0 181 0
-5 483 c-4 510 -5 514 -54 627 -27 61 -100 140 -160 173 -102 55 -248 72 -360
42z"/>
<path d="M2220 3134 c0 -14 319 -1081 371 -1241 l21 -63 152 0 152 0 109 390
c59 214 110 388 112 386 3 -2 52 -177 111 -387 l107 -384 155 0 154 0 192 635
c106 349 195 645 199 658 l6 22 -173 -2 -173 -3 -102 -380 c-56 -209 -105
-391 -108 -404 -3 -13 -8 -22 -10 -20 -2 3 -69 254 -206 772 l-10 37 -135 0
c-130 0 -135 -1 -143 -22 -4 -13 -52 -195 -107 -405 -54 -210 -102 -379 -105
-375 -3 4 -52 178 -108 387 -56 209 -104 388 -107 398 -5 15 -22 17 -180 17
-152 0 -174 -2 -174 -16z"/>
</g>
</svg>
