<svg xmlns="http://www.w3.org/2000/svg" viewBox="0 0 100 100"><path d="M29.1 29.2l6.4 11.6 4.3-.8.8-4.3-11.5-6.5zm11.6 35.3l-.8-4.3-4.3-.8L29.2 71l11.5-6.5zm30.2 6.4l-6.4-11.6-4.3.8-.8 4.3 11.5 6.5zm-6.5-30.1l6.4-11.6-11.6 6.4.8 4.3 4.4.9zm3 18l10.8 19.4-19.4-10.8L50 98.8l-8.8-31.4-19.3 10.8 10.8-19.4-31.5-8.7 31.4-8.8-10.7-19.4 19.4 10.8L50 1.3l8.8 31.4 19.4-10.8-10.8 19.4L98.8 50l-31.4 8.8zm-9.7-1L83.5 50l-33.5.1 7.7-7.7L50 16.6v33.5l-7.7-7.7-25.8 7.7H50l-7.7 7.7L50 83.5V50.1l7.7 7.7z"/></svg>