<svg viewBox="0 0 377 501" xmlns="http://www.w3.org/2000/svg" fill-rule="evenodd" clip-rule="evenodd" stroke-linejoin="round" stroke-miterlimit="2"><path d="M200.03 350.604l-.03 49.829v.003a99.922 99.922 0 01-29.26 70.641 99.914 99.914 0 01-70.64 29.261h-.2a99.914 99.914 0 01-70.64-29.261A99.922 99.922 0 010 400.436v-.003a99.922 99.922 0 0129.26-70.641 99.914 99.914 0 0170.64-29.261h.2c1.67 0 50.95.126 50.95.126l.06-100.585h-1.29c-55.23 0-100-44.771-100-99.999v-.001h50c.1 27.632 22.53 50 50.18 50h1.14l.04-50.167v-.003a99.88 99.88 0 0129.26-70.641A99.88 99.88 0 01251.08 0h.19a99.92 99.92 0 0170.65 29.261 99.922 99.922 0 0129.26 70.641v.003a99.922 99.922 0 01-29.26 70.641 99.92 99.92 0 01-70.65 29.261h-.19c-1.67 0-50.95-.126-50.95-.126l-.07 100.621c24.52.128 60.8.302 76.59.302 27.65 0 50.08-22.37 50.18-50h50c0 55.228-44.78 100-100 100h-76.8zM100 450.386a50.02 50.02 0 0035.36-14.644A50.026 50.026 0 00150 400.386v-49.903H99.95A49.948 49.948 0 0050 400.433v.003a49.948 49.948 0 0049.95 49.95h.05zM201.18 99.952a49.984 49.984 0 0114.64-35.356 50.016 50.016 0 0135.36-14.644h.05c13.24 0 25.95 5.262 35.32 14.63a49.98 49.98 0 0114.63 35.32v.003a49.98 49.98 0 01-14.63 35.32 49.965 49.965 0 01-35.32 14.63h-50.05V99.952z" fill="#f94643"/></svg>